<?xml version="1.0" encoding="UTF-8" standalone="no"?>
<!-- Created with Inkscape (http://www.inkscape.org/) -->

<svg
   xmlns:dc="http://purl.org/dc/elements/1.1/"
   xmlns:cc="http://creativecommons.org/ns#"
   xmlns:rdf="http://www.w3.org/1999/02/22-rdf-syntax-ns#"
   xmlns:svg="http://www.w3.org/2000/svg"
   xmlns="http://www.w3.org/2000/svg"
   xmlns:sodipodi="http://sodipodi.sourceforge.net/DTD/sodipodi-0.dtd"
   xmlns:inkscape="http://www.inkscape.org/namespaces/inkscape"
   width="159.1911mm"
   height="184.50276mm"
   viewBox="0 0 564.06296 653.74994"
   id="svg2"
   version="1.1"
   inkscape:version="0.91 r13725"
   sodipodi:docname="original-hca-logo.svg">
  <defs
     id="defs4">
    <pattern
       y="0"
       x="0"
       height="6"
       width="6"
       patternUnits="userSpaceOnUse"
       id="WMFhbasepattern" />
  </defs>
  <sodipodi:namedview
     id="base"
     pagecolor="#ffffff"
     bordercolor="#666666"
     borderopacity="1.0"
     inkscape:pageopacity="0.0"
     inkscape:pageshadow="2"
     inkscape:zoom="0.45092568"
     inkscape:cx="303.52015"
     inkscape:cy="539.02919"
     inkscape:document-units="px"
     inkscape:current-layer="g3428"
     showgrid="false"
     inkscape:window-width="1536"
     inkscape:window-height="803"
     inkscape:window-x="-8"
     inkscape:window-y="-8"
     inkscape:window-maximized="1"
     fit-margin-top="0"
     fit-margin-left="0"
     fit-margin-right="0"
     fit-margin-bottom="0" />
  <metadata
     id="metadata7">
    <rdf:RDF>
      <cc:Work
         rdf:about="">
        <dc:format>image/svg+xml</dc:format>
        <dc:type
           rdf:resource="http://purl.org/dc/dcmitype/StillImage" />
        <dc:title></dc:title>
      </cc:Work>
    </rdf:RDF>
  </metadata>
  <g
     inkscape:label="Layer 1"
     inkscape:groupmode="layer"
     id="layer1"
     transform="translate(-83.682809,-191.20151)">
    <g
       id="g3428"
       transform="matrix(3.5433068,0,0,3.5433068,83.839059,191.35778)">
      <path
         inkscape:connector-curvature="0"
         id="path3341"
         d="m 155.04583,80.962494 0,0 -0.0883,3.704166 -0.35278,3.615832 -0.44083,3.616113 -0.70556,3.527778 -0.79361,3.527777 -1.05833,3.35139 -1.14667,3.35139 -1.41111,3.26333 -1.49945,3.175 -1.67555,3.175 -1.76389,2.99833 -1.94028,2.91056 -2.11666,2.82222 -2.29306,2.64584 -2.38111,2.64583 -2.46944,2.46944 -2.64612,2.38111 -2.73388,2.29334 -2.82223,2.11667 -2.91055,2.02833 -3.08667,1.85222 -3.175,1.76389 -3.26333,1.58722 -3.35111,1.41111 -3.43972,1.32306 -3.43973,1.05833 -3.61583,0.97028 -3.615831,0.79361 -3.792502,0.70556 -3.704167,0.44083 -3.880556,0.26472 -3.880555,0.0881 0,0 -3.880556,-0.0881 -3.79222,-0.26472 -3.792502,-0.44083 -3.704167,-0.70556 -3.704166,-0.79361 -3.527778,-0.97028 -3.527778,-1.05833 -3.439724,-1.32306 -3.351107,-1.41111 -3.263335,-1.58722 -3.086665,-1.76389 -3.086947,-1.85222 -2.998611,-2.02833 -2.822222,-2.11667 -2.733887,-2.29334 -2.645974,-2.38111 -2.469444,-2.46944 -2.38125,-2.64583 -2.204862,-2.64584 -2.116666,-2.82222 -2.028472,-2.91056 -1.763889,-2.99833 -1.675695,-3.175 -1.499305,-3.175 L 8.73125,105.65694 7.4965278,102.30555 6.5263889,98.95416 5.6444444,95.426383 4.9388889,91.898605 4.4979167,88.282492 4.2333333,84.66666 l -0.088194,-3.704166 0,0 0.088194,-3.704167 0.2645834,-3.615831 0.4409722,-3.616113 0.7055555,-3.527778 0.8819445,-3.439442 0.9701389,-3.439725 1.2347222,-3.351389 1.322917,-3.263335 1.499305,-3.175 1.675695,-3.086665 1.763889,-2.998611 2.028472,-2.910275 2.116666,-2.822223 2.204862,-2.734168 2.38125,-2.645834 2.469444,-2.469444 2.645974,-2.38125 2.733887,-2.293056 2.822222,-2.116666 2.998611,-2.028473 3.086947,-1.852083 3.086665,-1.675694 3.263335,-1.5875 3.351107,-1.499306 3.439724,-1.234722 3.527778,-1.146528 3.527778,-0.970139 3.704166,-0.79375 3.704167,-0.617361 3.792502,-0.4409722 3.79222,-0.3527778 3.880556,-0.088194 0,0 3.880555,0.088194 3.880556,0.3527778 3.704167,0.4409722 3.792502,0.617361 3.615831,0.79375 3.61583,0.970139 3.43973,1.146528 3.43972,1.234722 3.35111,1.499306 3.26333,1.5875 3.175,1.675694 3.08667,1.852083 2.91055,2.028473 2.82223,2.116666 2.73388,2.293056 2.64612,2.38125 2.46944,2.469444 2.38111,2.645834 2.29306,2.734168 2.11666,2.822223 1.94028,2.910275 1.76389,2.998611 1.67555,3.086665 1.49945,3.175 1.41111,3.263335 1.14667,3.351389 1.05833,3.439725 0.79361,3.439442 0.70556,3.527778 0.44083,3.616113 0.35278,3.615831 0.0883,3.704167 0,0 z"
         style="fill:#003876;fill-opacity:1;fill-rule:nonzero;stroke:none" />
      <path
         inkscape:connector-curvature="0"
         id="path3343"
         d="m 134.14361,82.020827 0,0 -0.088,2.645833 -0.17639,2.645834 -0.35278,2.645833 -0.52917,2.557498 -0.52916,2.469444 -0.7939,2.469445 -0.88166,2.469444 -0.97028,2.293342 -1.05833,2.3811 -1.23472,2.20501 -1.32278,2.20472 -1.41111,2.11666 -1.49945,2.02862 -1.5875,1.93999 -1.76389,1.85223 -1.76388,1.85222 -1.94028,1.67555 -1.94028,1.67556 -2.11667,1.49944 -2.11666,1.49945 -2.20472,1.32278 -2.29334,1.23472 -2.38111,1.14639 -2.38111,1.05833 -2.469443,0.97028 -2.55778,0.79361 -2.55778,0.70555 -2.645551,0.61751 -2.734169,0.44083 -2.734169,0.26472 -2.733887,0.26473 -2.822222,0 0,0 -2.822222,0 -2.733887,-0.26473 -2.734169,-0.26472 -2.734169,-0.44083 -2.645551,-0.61751 -2.55778,-0.70555 -2.55778,-0.79361 -2.469444,-0.97028 -2.381109,-1.05833 -2.381109,-1.14639 -2.293338,-1.23472 -2.20472,-1.32278 -2.116667,-1.49945 -2.116666,-1.49944 -1.940278,-1.67556 -1.852224,-1.67555 -1.851943,-1.85222 -1.675835,-1.85223 -1.675554,-1.93999 -1.499446,-2.02862 -1.411111,-2.11666 -1.322776,-2.20472 -1.234722,-2.20501 -1.058333,-2.3811 -0.97028,-2.293342 -0.881804,-2.469444 -0.705555,-2.469445 -0.617361,-2.469444 -0.529167,-2.557498 -0.352778,-2.645833 -0.176389,-2.645834 -0.08819,-2.645833 0,0 0.08819,-2.645833 0.176389,-2.645834 0.352778,-2.645833 0.529167,-2.557498 0.617361,-2.469444 0.705555,-2.469445 0.881804,-2.469444 0.97028,-2.293338 1.058333,-2.292773 1.234722,-2.293338 1.322776,-2.20472 1.411111,-2.028613 1.499446,-2.116667 1.675554,-1.939995 1.675835,-1.852225 1.851943,-1.852224 1.852224,-1.675554 1.940278,-1.675553 2.116666,-1.499447 2.116667,-1.499446 2.20472,-1.322776 2.293338,-1.234722 2.381109,-1.146387 2.381109,-1.058333 2.469444,-0.97028 2.55778,-0.793609 2.55778,-0.705556 2.645551,-0.529448 2.734169,-0.528885 2.734169,-0.264724 2.733887,-0.264725 2.822222,0 0,0 2.822222,0 2.733887,0.264725 2.734169,0.264724 2.734169,0.528885 2.645551,0.529448 2.55778,0.705556 2.55778,0.793609 2.469443,0.97028 2.38111,1.058333 2.38111,1.146387 2.29334,1.234722 2.20472,1.322776 2.11666,1.499446 2.11667,1.499447 1.94028,1.675553 1.94028,1.675554 1.76388,1.852224 1.76389,1.852225 1.5875,1.939995 1.49945,2.116667 1.41111,2.028613 1.32278,2.20472 1.23472,2.293338 1.05833,2.292773 0.97028,2.293338 0.88166,2.469444 0.7939,2.469445 0.52916,2.469444 0.52917,2.557498 0.35278,2.645833 0.17639,2.645834 0.088,2.645833 0,0 z"
         style="fill:#ed1b2d;fill-opacity:1;fill-rule:nonzero;stroke:none" />
      <path
         inkscape:connector-curvature="0"
         id="path3345"
         d="m 158.30917,63.41194 -68.880003,0 0,-62.61819618 -19.66722,0 0,62.61819618 -68.968197,0 0,19.66722 68.968197,0 0,100.54167 19.66722,0 0,-100.54167 68.880003,0 0,-19.66722 z"
         style="fill:#fdb927;fill-opacity:1;fill-rule:nonzero;stroke:#003876;stroke-width:1.67569447px;stroke-linecap:round;stroke-linejoin:round;stroke-miterlimit:4;stroke-dasharray:none;stroke-opacity:1" />
      <path
         inkscape:connector-curvature="0"
         id="path3347"
         d="m 114.38805,68.79166 0,0 -1.76389,-0.440831 -1.41111,-0.352777 -0.96999,-0.441114 -0.61722,-0.176389 -9.26056,39.951941 0,0 -0.705558,1.23501 -0.176389,0.52888 -0.176389,0.52945 0,0 -0.08834,0.35278 0,0.44083 0.08834,0.35278 0.176389,0.35277 0,0 0.264725,0.35278 0.440832,0.26473 0.52917,0.26444 0.70555,0.17639 0.79389,0.088 0.97,0.0883 2.38111,0.0883 0,0 0.0883,-0.0883 0,0 0,-2.82223 0.17639,-3.88055 0.0881,-2.29306 0.26472,-2.46944 0.26473,-2.645835 0.44083,-2.822222 0.44083,-2.998611 0.6175,-3.086947 0.70556,-3.263053 0.88194,-3.351389 0.97,-3.351389 1.14667,-3.527778 1.23472,-3.439724 1.49916,-3.615832 0,0 z"
         style="fill:#e0e3ee;fill-opacity:1;fill-rule:nonzero;stroke:none" />
      <path
         inkscape:connector-curvature="0"
         id="path3349"
         d="m 46.390278,43.656385 1.940278,0 2.028613,0.61722 0,-2.910558 -2.028613,0.529449 -1.940278,0 0,-1.94056 0.61722,-2.028331 -2.910276,0 0.529167,2.028331 0,1.94056 -1.940278,0 -1.940278,-0.529449 0,2.910558 1.940278,-0.61722 1.940278,0 0,38.71722 0,40.040275 0,0 0.264442,0.17639 0,0 0,-82.638334 0,0 -0.440831,-1.587218 0,0 0,0 0,0 0.08805,-0.08834 0,0 0.08834,0 0,0 0.529167,1.675553 0,82.814729 0,0 1.234722,0.88194 0,-41.275 0,-38.71722 z"
         style="fill:#fdb927;fill-opacity:1;fill-rule:nonzero;stroke:none" />
      <path
         inkscape:connector-curvature="0"
         id="path3351"
         d="m 45.155556,39.951936 -0.529167,-1.675553 0,0 0,0 -0.08834,0 0,0 -0.08805,0.08834 0,0 0,0 0,0 0.440831,1.587218 0,0 0,82.638339 0,0 0.264725,0.17639 0,-82.814729 z"
         style="fill:#ffffff;fill-opacity:1;fill-rule:nonzero;stroke:none" />
      <path
         inkscape:connector-curvature="0"
         id="path3353"
         d="m 41.010276,41.715825 0,0 0,0.08834 0,0.08834 1.587782,0.528884 2.028331,0 0,0 0,0 0.08833,-0.08805 0,0 -0.08833,-0.08805 0,0 0,0 -2.028331,0 0,0 -1.499447,-0.529449 0,0 -0.08834,0 0,0 0,0 z"
         style="fill:#ffffff;fill-opacity:1;fill-rule:nonzero;stroke:none" />
      <path
         inkscape:connector-curvature="0"
         id="path3355"
         d="m 50.006391,41.715825 0,0 -1.675835,0.529449 0,0 -1.851943,0 0,0 -0.08834,0.08805 0,0.08805 0,0 0,0 0.08834,0.08834 1.851943,0 1.763888,-0.529167 0,0 0,-0.08805 0.08805,-0.08834 0,0 -0.08805,-0.08834 -0.08805,0 0,0 z"
         style="fill:#ffffff;fill-opacity:1;fill-rule:nonzero;stroke:none" />
      <path
         inkscape:connector-curvature="0"
         id="path3357"
         d="m 81.57972,77.258327 0,0 0.441113,-3.351389 0.61722,-3.351389 0.705556,-3.263053 0.617502,-2.998893 1.323058,-5.203331 0.969998,-3.439443 0,0 -0.352778,-0.264724 -0.881945,-0.617502 -1.411111,-0.881663 -2.028613,-1.058333 -1.146387,-0.617502 -1.411111,-0.529167 -1.411111,-0.61722 -1.675835,-0.529449 -1.763889,-0.528884 -1.939996,-0.529449 -2.028613,-0.440831 -2.20472,-0.440831 0,0 -2.293338,-0.264725 -2.116667,-0.176389 -2.028331,-0.176388 -1.940278,0 -1.851942,0 -1.675835,0.08805 -3.086947,0.264724 -2.469444,0.352778 -1.763889,0.352778 -1.587218,0.352778 0,0 0,0 0,0 0.969998,3.263053 0.793891,3.263336 0.61722,3.175 0.529166,3.086664 0.264725,2.998893 0.264442,2.910276 0.08834,2.822222 -0.08834,2.645833 0,0 3.351389,-0.441113 3.175,-0.176107 2.998611,-0.08834 2.910558,0.176389 2.733887,0.176389 2.55778,0.352777 2.292773,0.352778 2.205002,0.441114 1.940278,0.528884 1.763889,0.441113 2.734169,0.969998 1.675553,0.705556 0.61722,0.264724 0,0 z"
         style="fill:#003876;fill-opacity:1;fill-rule:nonzero;stroke:none" />
      <path
         inkscape:connector-curvature="0"
         id="path3359"
         d="m 73.113053,58.031938 0,0 -3.615831,-0.705555 0,0 0,0 0.881945,-4.7625 0,0 -3.439443,-0.440831 0,0 0,0 -0.705555,4.850553 0,0 0,0 -4.233333,-0.441113 0,0 0,0 -0.529449,3.616113 0,0 0,0 4.057226,0.352778 0,0 0,0 -1.146669,5.380002 -1.322775,5.291667 0,0 0,0 3.175,0.352777 0,0 0,0 1.322775,-5.291666 1.146669,-5.291667 0,0 0,0 3.615831,0.61722 0,0 0,0 0.793609,-3.527778 0,0 z"
         style="fill:#ef3e33;fill-opacity:1;fill-rule:nonzero;stroke:none" />
      <path
         inkscape:connector-curvature="0"
         id="path3361"
         d="m 81.57972,77.258327 0,0 0.352778,-2.910275 0,0 -0.352778,2.910275 0,0 z"
         style="fill:#ffffff;fill-opacity:1;fill-rule:nonzero;stroke:none" />
      <path
         inkscape:connector-curvature="0"
         id="path3363"
         d="m 81.57972,77.258327 0,0 -0.61722,-0.264724 -1.675553,-0.705556 -2.734169,-0.969998 -1.763889,-0.441113 -1.940278,-0.528884 -2.205002,-0.441114 -2.292773,-0.352778 -2.55778,-0.352777 -2.733887,-0.176389 -2.910558,-0.176389 -2.998611,0.08834 -3.175,0.176107 -3.351389,0.441113 0,0 -0.176389,3.704167 -0.264724,3.351389 0,0 -0.440831,2.910558 -0.440831,2.645551 -0.441114,2.381391 -0.441113,1.940278 -0.793609,2.910558 -0.264724,0.969997 0,0 2.646115,-0.352777 2.557498,-0.176389 2.469444,-0.08805 2.469445,0 2.293055,0.08805 2.205003,0.176389 2.028331,0.264442 1.940277,0.264724 3.351389,0.617502 2.55778,0.705556 1.851943,0.528884 0.793608,0.264725 0,0 1.675836,0.529167 1.411111,0.441113 1.323058,0.528884 0,0 0.881662,-7.672775 0.882227,-6.879167 0.881662,-6.35 0,0 z"
         style="fill:#d7dae9;fill-opacity:1;fill-rule:nonzero;stroke:none" />
      <path
         inkscape:connector-curvature="0"
         id="path3365"
         d="m 109.62584,67.380549 0,0 -0.0883,-0.08805 0,0 0.79389,-2.822222 -0.0883,-0.08834 0,0 -0.0883,-0.176389 -0.44083,-0.529166 -0.70556,-0.793891 -1.14638,-0.793609 -0.61751,-0.440831 -0.7936,-0.441114 -0.88223,-0.441113 -0.97,-0.352778 -1.05833,-0.352778 -1.23472,-0.264442 -1.32306,-0.176389 -1.411113,-0.08805 0,0 -3.263054,-0.176671 -2.998611,-0.264442 -2.645833,-0.352778 -2.116667,-0.441114 0,0 -0.97028,3.704449 -1.23444,5.203331 -0.705555,3.086665 -0.617503,3.263335 -0.529166,3.439443 -0.529167,3.527777 -0.352778,3.527778 -0.264724,3.527778 -0.08805,3.439724 0,1.675836 0.08805,1.675553 0.08834,1.5875 0.176389,1.499165 0.264725,1.411111 0.352778,1.411113 0.352777,1.32305 0.440831,1.23473 0.617503,1.14666 0.61722,0.97 0,0 2.733886,0.0883 0,0 2.734169,0.1761 2.293056,0.17668 1.852224,0.35277 1.499165,0.35278 1.234722,0.35278 0.793891,0.35278 0.617225,0.26444 0.35278,0.26444 9.26056,-39.951939 z"
         style="fill:#ebedf4;fill-opacity:1;fill-rule:nonzero;stroke:none" />
      <path
         inkscape:connector-curvature="0"
         id="path3367"
         d="m 88.547222,58.29638 0,0 -1.851942,-0.352777 -0.97028,-0.264443 0,0 -0.881944,3.263336 -0.969998,4.056662 -1.058334,4.498058 -0.441113,2.469444 -0.441113,2.381392 0,0 -0.352778,2.910275 0,0 -0.881662,6.35 -0.882227,6.879167 -0.881662,7.672775 0,0 L 77.611111,97.631385 76.2,97.190272 l -1.675836,-0.529167 0,0 0.176672,0.352778 -0.08834,0.440831 0,0 -0.08834,0.352778 -0.264442,0.441113 -0.705555,0.969998 0,0 -0.61722,0.882227 -0.264725,0.44083 -0.264724,0.44083 -0.08805,0.44111 0.08805,0.52917 0.176671,0.44083 0.352778,0.44112 0,0 0.440831,0.26444 0.440831,0.26472 0.97028,0.52917 1.323058,0.35278 1.499164,0.26444 1.763889,0.17667 2.028613,0.088 4.850554,0.17639 0,0 -0.61722,-0.97 -0.617503,-1.14666 -0.440831,-1.23473 -0.352777,-1.32305 -0.352778,-1.411115 -0.264725,-1.411111 -0.176389,-1.499165 -0.08834,-1.5875 -0.08805,-1.675553 0,-1.675836 0.08805,-3.439724 0.264724,-3.527778 0.352778,-3.527778 0.529167,-3.527777 0.529166,-3.439443 0.617503,-3.263335 0.705555,-3.086665 1.23444,-5.203331 0.97028,-3.704449 0,0 z"
         style="fill:#e0e3ee;fill-opacity:1;fill-rule:nonzero;stroke:none" />
      <path
         inkscape:connector-curvature="0"
         id="path3369"
         d="m 86.254167,55.650829 0,0 -0.352778,1.322776 0,0 0.352778,-1.322776 0,0 0,0 0,0 z"
         style="fill:#ffffff;fill-opacity:1;fill-rule:nonzero;stroke:none" />
      <path
         inkscape:connector-curvature="0"
         id="path3371"
         d="m 115.35833,114.9175 0,0 -0.17639,-2.11667 -0.0883,-2.205 -0.088,-2.11667 0,-2.02833 0,-2.11667 0.17638,-2.02861 0.35278,-3.880556 0.44112,-3.704167 0.70555,-3.527778 0.70556,-3.263335 0.79361,-2.998329 0.7936,-2.734169 0.88223,-2.469444 0.70556,-2.20472 0.79361,-1.763889 1.05833,-2.55778 0.44083,-0.881945 0.0883,-0.08805 0,-0.08834 0,0 -0.17639,-0.352777 -0.26473,-0.352778 -0.52888,-0.441114 -0.6175,-0.440831 -0.97028,-0.440831 -1.23444,-0.441113 -1.58779,-0.264442 0,0 -1.67555,-0.264725 -1.49945,-0.352778 0,0 -1.49916,3.615832 -1.23472,3.439724 -1.14667,3.527778 -0.97,3.351389 -0.88194,3.351389 -0.70556,3.263053 -0.6175,3.086947 -0.44083,2.998611 -0.44083,2.822222 -0.26473,2.645836 -0.26472,2.46944 -0.0881,2.29306 -0.17639,3.88055 0,2.82223 0,0 1.23473,0 1.14638,0.0883 1.05834,0.0881 0.97028,0.17639 1.67583,0.44112 1.32278,0.44083 1.05833,0.52916 0.70556,0.35278 0.52916,0.44112 0,0 z"
         style="fill:#ebedf4;fill-opacity:1;fill-rule:nonzero;stroke:none" />
      <path
         inkscape:connector-curvature="0"
         id="path3373"
         d="m 85.636947,57.67916 0,0 0.08805,0 0,0 0.176389,-0.705555 0,0 -0.264442,0.705555 0,0 z"
         style="fill:#ffffff;fill-opacity:1;fill-rule:nonzero;stroke:none" />
      <path
         inkscape:connector-curvature="0"
         id="path3375"
         d="M 7.2319444,97.013883 6.8791667,93.045274 11.377083,92.60416 11.024306,88.282492 6.5263889,88.723605 6.1736111,84.754714 18.961806,83.608327 l 0.352777,3.968609 -5.115277,0.441113 0.352777,4.321669 5.203473,-0.441113 0.352777,3.968891 -12.8763886,1.146387 z"
         style="fill:#ffffff;fill-opacity:1;fill-rule:nonzero;stroke:#fdb927;stroke-width:0.35277778px;stroke-linecap:round;stroke-linejoin:round;stroke-miterlimit:4;stroke-dasharray:none;stroke-opacity:1" />
      <path
         inkscape:connector-curvature="0"
         id="path3377"
         d="m 10.495139,76.199994 0,0 -0.264583,-0.440831 -0.2645838,-0.529449 -0.088194,-0.528885 0.088194,-0.529449 0,0 0.088195,-0.61722 0.264583,-0.529166 0.352778,-0.352778 0.352778,-0.352778 0,0 0.529166,-0.264724 0.705556,-0.176107 0.705555,0 0.79375,0.08805 0,0 1.058334,0.176389 0.79375,0.264443 0.617361,0.264724 0.440972,0.440831 0,0 0.264583,0.441113 0.264584,0.441114 0,0.528884 0,0.617502 0,0 -0.176389,0.617503 -0.176389,0.528884 -0.352778,0.352778 -0.440972,0.352778 0,0 -0.529167,0.264724 -0.617361,0.176389 -0.79375,0 -0.881944,-0.08834 0,0 -0.970139,-0.176106 -0.705556,-0.264725 -0.617361,-0.352777 -0.440972,-0.352778 0,0 z m 5.997222,4.7625 0,0 0.705556,-0.441114 0.705555,-0.440831 0.529167,-0.529166 0.529167,-0.61722 0,0 0.440972,-0.705556 0.264583,-0.793891 0.264583,-0.969998 0.264584,-0.97028 0,0 0.08819,-1.058333 0,-0.97028 -0.176389,-0.881662 -0.264583,-0.793891 0,0 -0.264583,-0.705556 -0.440973,-0.705556 -0.529166,-0.529166 -0.617361,-0.529167 0,0 -0.705556,-0.441113 -0.881944,-0.352778 -0.970139,-0.264442 -1.058334,-0.264442 0,0 -0.705555,-0.08834 -0.705556,0 -0.705555,0.08834 -0.617361,0.08805 -0.617361,0.08805 -0.617362,0.264725 -0.5291662,0.264724 -0.5291667,0.352778 0,0 -0.4409722,0.352778 -0.4409722,0.528884 -0.3527778,0.441113 -0.3527778,0.61722 -0.2645833,0.529449 -0.1763889,0.705556 -0.1763889,0.705555 -0.1763889,0.793609 0,0 -0.088194,0.705556 0,0.793609 0,0.617502 0.088194,0.705556 0.1763889,0.617502 0.2645833,0.61722 0.2645834,0.529166 0.3527777,0.529167 0,0 0.3527778,0.441113 0.4409722,0.440832 0.5291667,0.352777 0.5291667,0.352778 0.6173612,0.264725 0.617361,0.264442 0.705556,0.176389 0.79375,0.08805 0,0 1.058333,0.176671 0.970139,-0.08834 0.970139,-0.08834 0.881944,-0.264442 0,0 z"
         style="fill:#ffffff;fill-opacity:1;fill-rule:nonzero;stroke:#ffffff;stroke-width:0.35277778px;stroke-linecap:round;stroke-linejoin:round;stroke-miterlimit:4;stroke-dasharray:none;stroke-opacity:1" />
      <path
         inkscape:connector-curvature="0"
         id="path3379"
         d="m 9.3486111,63.147216 1.4111109,-3.792502 9.084028,3.439724 2.204861,-5.820833 2.998611,1.146669 -3.615972,9.525 -12.0826389,-4.498058 z"
         style="fill:#ffffff;fill-opacity:1;fill-rule:nonzero;stroke:#fdb927;stroke-width:0.35277778px;stroke-linecap:round;stroke-linejoin:round;stroke-miterlimit:4;stroke-dasharray:none;stroke-opacity:1" />
      <path
         inkscape:connector-curvature="0"
         id="path3381"
         d="m 14.640278,50.623605 1.940278,-3.527778 11.200694,6.261665 -1.940278,3.527777 -11.200694,-6.261664 z"
         style="fill:#ffffff;fill-opacity:1;fill-rule:nonzero;stroke:#fdb927;stroke-width:0.35277778px;stroke-linecap:round;stroke-linejoin:round;stroke-miterlimit:4;stroke-dasharray:none;stroke-opacity:1" />
      <path
         inkscape:connector-curvature="0"
         id="path3383"
         d="m 18.785417,43.126936 2.38125,-2.910276 8.55472,0.705556 -5.556109,-4.498058 2.38125,-2.910275 10.054308,8.113889 -2.381392,2.910275 -8.554861,-0.705555 5.55625,4.498057 -2.381109,2.910276 -10.054307,-8.113889 z"
         style="fill:#ffffff;fill-opacity:1;fill-rule:nonzero;stroke:#fdb927;stroke-width:0.35277778px;stroke-linecap:round;stroke-linejoin:round;stroke-miterlimit:4;stroke-dasharray:none;stroke-opacity:1" />
      <path
         inkscape:connector-curvature="0"
         id="path3385"
         d="m 29.986111,30.250829 8.378613,-6.614724 1.675554,2.116667 -5.203331,4.14528 1.322775,1.675553 4.850554,-3.880556 1.587782,2.028331 -4.850836,3.880556 1.5875,1.94056 5.380002,-4.233333 1.851943,2.292773 -8.55472,6.702778 -8.025836,-10.053885 z"
         style="fill:#ffffff;fill-opacity:1;fill-rule:nonzero;stroke:#fdb927;stroke-width:0.35277778px;stroke-linecap:round;stroke-linejoin:round;stroke-miterlimit:4;stroke-dasharray:none;stroke-opacity:1" />
      <path
         inkscape:connector-curvature="0"
         id="path3387"
         d="m 45.331944,29.280549 3.263336,-1.940277 0,0 0.528884,0.705555 0.264725,0.176389 0.264724,0.176389 0,0 0.440831,0.176389 0.529167,0 0.441113,-0.08805 0.528885,-0.176671 0,0 0.352778,-0.176247 0.264724,-0.264584 0.176389,-0.264583 0.176389,-0.264583 0,0 0.08805,-0.264584 0,-0.264583 0,-0.264583 -0.08805,-0.176389 0,0 -0.176389,-0.264584 -0.176389,-0.176389 -0.440831,-0.176388 0,0 -0.352778,-0.08819 -0.441113,0.08819 -1.411111,0.264583 0,0 -1.146669,0.264583 -1.146387,0.08819 -0.881944,0 -0.793891,-0.08819 0,0 -0.705556,-0.264583 -0.528884,-0.352778 -0.529449,-0.529167 -0.352778,-0.617361 0,0 -0.264442,-0.440972 -0.08834,-0.440972 0,-0.529167 0,-0.440972 0,0 0.08834,-0.529167 0.176389,-0.529166 0.264724,-0.529167 0.352778,-0.440972 0,0 0.528884,-0.529167 0.529449,-0.440972 0.705556,-0.440972 0.881662,-0.529167 0,0 1.058333,-0.440972 0.97028,-0.264584 0.881945,-0.176388 0.881944,0 0,0 0.705556,0.264583 0.705555,0.352778 0.617503,0.617361 0.61722,0.705555 -3.263336,1.852084 0,0 -0.264442,-0.264584 -0.264442,-0.264583 -0.264725,-0.176389 -0.264724,-0.08819 0,0 -0.352778,0 -0.352778,0 -0.352778,0.08819 -0.352777,0.176389 0,0 -0.528885,0.352778 -0.264724,0.352778 0,0 -0.08805,0.440972 0.08805,0.352778 0,0 0.176389,0.264583 0.352777,0.08819 0,0 0.529167,0 0.881944,-0.176389 0,0 2.205003,-0.529166 0.881662,-0.08819 0.705555,0 0,0 0.617503,0 0.617502,0.08819 0.440831,0.176389 0.440831,0.264583 0,0 0.441113,0.264583 0.352778,0.352778 0.264442,0.352778 0.264725,0.440972 0,0 0.264724,0.617361 0.176107,0.529167 0,0.617361 0,0.617361 0,0 -0.08805,0.617361 -0.264725,0.529167 -0.264442,0.617361 -0.352778,0.529167 0,0 -0.529166,0.441113 -0.529167,0.528884 -0.705556,0.441114 -0.793891,0.441113 0,0 -1.411111,0.61722 -1.23444,0.352778 -0.529449,0.08834 -0.528884,0 -0.441114,0 -0.441113,-0.176671 0,0 -0.881662,-0.264442 -0.705556,-0.529167 -0.617502,-0.617502 -0.529167,-0.793609 0,0 z"
         style="fill:#ffffff;fill-opacity:1;fill-rule:nonzero;stroke:#fdb927;stroke-width:0.35277778px;stroke-linecap:round;stroke-linejoin:round;stroke-miterlimit:4;stroke-dasharray:none;stroke-opacity:1" />
      <path
         inkscape:connector-curvature="0"
         id="path3389"
         d="m 57.15,23.459716 3.615831,-1.234722 0,0 0.441113,0.79375 0.176389,0.264583 0.264725,0.176389 0,0 0.440831,0.264583 0.440831,0.176389 0.441113,0 0.529167,-0.08819 0,0 0.440831,-0.176389 0.264725,-0.176389 0.264724,-0.176389 0.264442,-0.176389 0,0 0.08834,-0.264583 0.08805,-0.264583 0,-0.264584 0,-0.264583 0,0 -0.08805,-0.264583 -0.176671,-0.176389 -0.352778,-0.264584 0,0 -0.352778,-0.176389 -0.528884,0 -1.323058,-0.08819 0,0 -1.234722,0 -1.146669,-0.08819 -0.881662,-0.176389 -0.793892,-0.264584 0,0 -0.529166,-0.352777 -0.529167,-0.440973 -0.352778,-0.617361 -0.264442,-0.705555 0,0 -0.08834,-0.440973 0,-0.529166 0,-0.440972 0.176388,-0.529167 0,0 0.176389,-0.440972 0.264443,-0.529167 0.352777,-0.440972 0.529449,-0.352778 0,0 0.528885,-0.440972 0.705555,-0.264584 0.705556,-0.352777 0.97028,-0.264584 0,0 1.146386,-0.264583 0.97028,-0.08819 0.97028,0.08819 0.793609,0.176389 0,0 0.705556,0.352778 0.617502,0.529166 0.440831,0.705556 0.440831,0.79375 -3.527777,1.234722 0,0 -0.176107,-0.352778 -0.264725,-0.352777 -0.264724,-0.176389 -0.264442,-0.176389 0,0 -0.264442,-0.08819 -0.352778,-0.08819 -0.352778,0.08819 -0.352778,0 0,0 -0.617502,0.264584 -0.352778,0.352777 0,0 -0.176389,0.352778 0,0.440972 0,0 0.176389,0.264584 0.264725,0.176389 0,0 0.528884,0.08819 0.882227,0 0,0 2.292773,0 0.882227,0 0.705555,0.176389 0,0 0.61722,0.08819 0.529167,0.264584 0.440831,0.264583 0.352778,0.264583 0,0 0.352778,0.440973 0.264724,0.352777 0.264725,0.440973 0.176106,0.529166 0,0 0.08834,0.617361 0,0.529167 0,0.617361 -0.176389,0.617361 0,0 -0.264725,0.529167 -0.264442,0.529167 -0.441113,0.529166 -0.528885,0.440973 0,0 -0.529448,0.352777 -0.705556,0.352778 -0.705556,0.352778 -0.881662,0.264583 0,0 -1.499446,0.264584 -1.234723,0.08819 -0.617502,0 -0.528884,-0.08819 -0.441114,-0.176389 -0.352777,-0.176389 0,0 -0.793892,-0.529167 -0.61722,-0.617361 L 57.590831,24.34166 57.15,23.459716 l 0,0 z"
         style="fill:#ffffff;fill-opacity:1;fill-rule:nonzero;stroke:#fdb927;stroke-width:0.35277778px;stroke-linecap:round;stroke-linejoin:round;stroke-miterlimit:4;stroke-dasharray:none;stroke-opacity:1" />
      <path
         inkscape:connector-curvature="0"
         id="path3391"
         d="M 85.460276,18.961799 88.9,20.196522 l 0,0 -0.264724,0.705555 -0.264443,0.617361 -0.352777,0.529167 -0.352778,0.529167 0,0 -0.441114,0.440972 -0.440831,0.352778 -0.529166,0.352777 -0.529167,0.264584 0,0 -0.617502,0.176389 -0.705556,0.08819 -0.705555,0.08819 -0.881663,0 0,0 -0.97028,-0.08819 -0.881944,-0.176389 -0.793891,-0.176389 -0.705556,-0.352778 0,0 -0.61722,-0.352777 -0.61722,-0.529167 -0.529449,-0.617361 -0.440831,-0.705556 0,0 -0.440831,-0.881944 -0.264724,-0.881945 -0.08805,-1.058333 0,-1.146528 0,0 0.08805,-0.79375 0.08805,-0.705555 0.176671,-0.705556 0.176107,-0.617361 0.264724,-0.617361 0.352778,-0.529167 0.352778,-0.440972 0.440831,-0.440972 0,0 0.441113,-0.352778 0.529167,-0.352778 0.529167,-0.264583 0.529166,-0.176389 0.705556,-0.176389 0.617502,-0.08819 0.705556,-0.0882 0.793609,0 0,0 1.146386,0.0882 0.97028,0.264583 0.881945,0.352778 0.793891,0.440972 0,0 0.61722,0.617361 0.529166,0.705556 0.440832,0.79375 0.352777,0.970139 -3.615831,0.617361 0,0 -0.08805,-0.440972 -0.264725,-0.352778 0,0 -0.352777,-0.440972 -0.352778,-0.352778 0,0 -0.529167,-0.176389 -0.529166,-0.0882 0,0 -0.705556,0 -0.529167,0.176389 -0.529166,0.352778 -0.352778,0.440972 0,0 -0.264725,0.440973 -0.264442,0.617361 -0.08834,0.617361 -0.08805,0.881944 0,0 0,0.970139 0.08805,0.79375 0.176671,0.705556 0.264442,0.440972 0,0 0.352778,0.352778 0.352778,0.264583 0.529166,0.176389 0.529167,0.08819 0,0 0.529167,0 0.529166,-0.08819 0.352778,-0.176389 0.352778,-0.264583 0,0 0.264442,-0.352778 0.264724,-0.440972 0.264725,-0.529167 0.176107,-0.529167 0,0 z"
         style="fill:#ffffff;fill-opacity:1;fill-rule:nonzero;stroke:#ffffff;stroke-width:0.35277778px;stroke-linecap:round;stroke-linejoin:round;stroke-miterlimit:4;stroke-dasharray:none;stroke-opacity:1" />
      <path
         inkscape:connector-curvature="0"
         id="path3393"
         d="m 93.398058,12.170827 3.79222,1.146528 -1.234722,4.321528 4.233334,1.146527 1.23472,-4.321527 3.79222,1.058333 -3.43944,12.435417 -3.880557,-1.146528 1.411111,-4.938889 -4.144997,-1.234722 -1.411111,5.027083 -3.880556,-1.058333 3.527778,-12.435417 z"
         style="fill:#ffffff;fill-opacity:1;fill-rule:nonzero;stroke:#fdb927;stroke-width:0.35277778px;stroke-linecap:round;stroke-linejoin:round;stroke-miterlimit:4;stroke-dasharray:none;stroke-opacity:1" />
      <path
         inkscape:connector-curvature="0"
         id="path3395"
         d="m 112.00694,21.607633 1.49945,0.881944 0,0 0.79361,0.529167 0.26472,0.176389 0.0881,0.264583 0,0 0.088,0.264583 0,0.264584 -0.088,0.264583 -0.0881,0.264583 0,0 -0.26472,0.352778 -0.26472,0.176389 0,0 -0.44084,0.08819 -0.35277,-0.08819 0,0 -1.05834,-0.352778 -1.49916,-0.79375 1.32277,-2.293055 z m -4.93888,8.995974 2.46944,-4.586252 0.35278,0.176389 0,0 0.35278,0.352778 0.35277,0.440972 0,0 0.0883,0.440972 0.0881,0.705556 -0.0881,4.497916 3.96861,2.205002 0.088,-4.233333 0,0 -0.088,-0.97028 0,0 -0.26473,-0.881944 0,0 -0.26444,-0.441114 -0.35278,-0.529025 0,0 0.79389,0.176389 0.61722,0.08819 0,0 0.52917,0 0.44083,-0.176389 0.35278,-0.08819 0.44111,-0.264584 0,0 0.35278,-0.264583 0.35278,-0.264583 0.26444,-0.440972 0.35278,-0.440973 0,0 0.17667,-0.529166 0.17611,-0.529167 0.0883,-0.529167 0,-0.529166 0,0 -0.0883,-0.440973 -0.17611,-0.440972 -0.26472,-0.440972 -0.26473,-0.440972 0,0 -0.44083,-0.352778 -0.52917,-0.440972 -1.41111,-0.79375 -5.82083,-3.175 -6.17361,11.288889 3.52778,1.852224 z"
         style="fill:#ffffff;fill-opacity:1;fill-rule:nonzero;stroke:#fdb927;stroke-width:0.35277778px;stroke-linecap:round;stroke-linejoin:round;stroke-miterlimit:4;stroke-dasharray:none;stroke-opacity:1" />
      <path
         inkscape:connector-curvature="0"
         id="path3397"
         d="m 123.11944,25.488188 3.175,2.469445 -8.02583,10.142361 -3.08667,-2.469445 7.9375,-10.142361 z"
         style="fill:#ffffff;fill-opacity:1;fill-rule:nonzero;stroke:#fdb927;stroke-width:0.35277778px;stroke-linecap:round;stroke-linejoin:round;stroke-miterlimit:4;stroke-dasharray:none;stroke-opacity:1" />
      <path
         inkscape:connector-curvature="0"
         id="path3399"
         d="m 122.85472,36.07138 2.73417,2.646116 0,0 -0.44083,0.705556 -0.17667,0.352777 0,0.264443 0,0 -0.0881,0.529166 0.0881,0.440831 0.26472,0.441114 0.35278,0.441113 0,0 0.26472,0.264442 0.26445,0.176389 0.35277,0.176389 0.26445,0.08834 0,0 0.26472,0 0.26472,-0.08834 0.26445,-0.08834 0.17639,-0.176106 0,0 0.17638,-0.176671 0.0883,-0.176107 0.0881,-0.529449 0,0 0,-0.352778 -0.17639,-0.440831 -0.61722,-1.234722 0,0 -0.6175,-1.146669 -0.44083,-0.969998 -0.26472,-0.881944 -0.0881,-0.793609 0,0 0.0881,-0.705556 0.17639,-0.705555 0.35277,-0.617502 0.44112,-0.529167 0,0 0.35277,-0.264442 0.44084,-0.264725 0.44083,-0.176389 0.52945,-0.08834 0,0 0.52888,-0.08805 0.52945,0.08805 0.52888,0.08834 0.61751,0.176389 0,0 0.6175,0.352778 0.61722,0.440831 0.61722,0.529449 0.70555,0.705556 0,0 0.70556,0.881662 0.52945,0.882227 0.44083,0.793608 0.17639,0.793609 0,0 0,0.793891 -0.17639,0.793892 -0.35278,0.793608 -0.52917,0.705556 -2.73388,-2.557498 0,0 0.1761,-0.352778 0.17668,-0.352777 0.088,-0.264725 0,-0.352778 0,0 0,-0.264724 -0.088,-0.352778 -0.26473,-0.264442 -0.17639,-0.352778 0,0 -0.52916,-0.352778 -0.44084,-0.176388 0,0 -0.44111,0 -0.35278,0.176388 0,0 -0.17639,0.264443 0,0.352777 0,0 0.17639,0.529449 0.35278,0.793609 0,0 1.14667,2.028614 0.35278,0.793608 0.26444,0.617503 0,0 0.0883,0.61722 0.088,0.529166 0,0.529167 -0.088,0.529167 0,0 -0.17668,0.440831 -0.26444,0.441113 -0.26444,0.441113 -0.35278,0.352778 0,0 -0.52945,0.352778 -0.52888,0.352778 -0.52945,0.176106 -0.61722,0.176672 0,0 -0.61722,0.08805 -0.6175,-0.08805 -0.6175,-0.08834 -0.61722,-0.264442 0,0 -0.61722,-0.264725 -0.61751,-0.440831 -0.6175,-0.529449 -0.61722,-0.61722 0,0 -0.97,-1.234722 -0.70555,-1.058333 -0.17667,-0.529167 -0.17611,-0.441113 -0.0883,-0.528885 -0.0883,-0.441113 0,0 0.17667,-0.881944 0.26444,-0.793609 0.44112,-0.793891 0.52888,-0.793892 0,0 z"
         style="fill:#ffffff;fill-opacity:1;fill-rule:nonzero;stroke:#fdb927;stroke-width:0.35277778px;stroke-linecap:round;stroke-linejoin:round;stroke-miterlimit:4;stroke-dasharray:none;stroke-opacity:1" />
      <path
         inkscape:connector-curvature="0"
         id="path3401"
         d="m 138.99444,41.274994 6.26195,10.318609 -2.73417,1.587782 -2.02861,-3.439725 -8.37833,5.026943 -2.02833,-3.351107 8.28999,-5.027224 -2.11666,-3.527778 2.73416,-1.5875 z"
         style="fill:#ffffff;fill-opacity:1;fill-rule:nonzero;stroke:#fdb927;stroke-width:0.35277778px;stroke-linecap:round;stroke-linejoin:round;stroke-miterlimit:4;stroke-dasharray:none;stroke-opacity:1" />
      <path
         inkscape:connector-curvature="0"
         id="path3403"
         d="m 146.57917,54.856938 1.49944,3.616114 -11.90639,4.938888 -1.5875,-3.704448 11.99445,-4.850554 z"
         style="fill:#ffffff;fill-opacity:1;fill-rule:nonzero;stroke:#fdb927;stroke-width:0.35277778px;stroke-linecap:round;stroke-linejoin:round;stroke-miterlimit:4;stroke-dasharray:none;stroke-opacity:1" />
      <path
         inkscape:connector-curvature="0"
         id="path3405"
         d="m 142.875,68.615272 4.7625,0.352777 -4.23333,2.381109 -0.52917,-2.733886 z m -3.88056,5.203331 0.88195,4.057226 11.55333,-7.496669 -0.97,-4.233333 -13.58194,-1.940278 0.88194,3.968609 2.205,0.176671 0.97,4.40944 -1.94028,1.058334 z"
         style="fill:#ffffff;fill-opacity:1;fill-rule:nonzero;stroke:#ffffff;stroke-width:0.35277778px;stroke-linecap:round;stroke-linejoin:round;stroke-miterlimit:4;stroke-dasharray:none;stroke-opacity:1" />
      <path
         inkscape:connector-curvature="0"
         id="path3407"
         d="m 152.75278,78.669438 0,3.704167 -7.23195,4.850553 7.14389,0 0,3.792502 -12.87667,-0.08805 0,-3.792502 7.14389,-4.7625 -7.05555,-0.08834 0,-3.703884 12.87639,0.08805 z"
         style="fill:#ffffff;fill-opacity:1;fill-rule:nonzero;stroke:#fdb927;stroke-width:0.35277778px;stroke-linecap:round;stroke-linejoin:round;stroke-miterlimit:4;stroke-dasharray:none;stroke-opacity:1" />
      <path
         inkscape:connector-curvature="0"
         id="path3409"
         d="m 31.309169,123.29583 5.114995,-2.29306 -2.910275,4.7625 -2.20472,-2.46944 z m -0.97028,7.49667 3.263053,3.61583 7.408334,-14.11111 -3.351107,-3.70417 -14.905002,5.73278 3.175,3.43944 2.293055,-1.05833 3.527778,3.88055 -1.411111,2.20501 z"
         style="fill:#ffffff;fill-opacity:1;fill-rule:nonzero;stroke:#fdb927;stroke-width:0.35277778px;stroke-linecap:round;stroke-linejoin:round;stroke-miterlimit:4;stroke-dasharray:none;stroke-opacity:1" />
      <path
         inkscape:connector-curvature="0"
         id="path3411"
         d="m 48.506944,136.87777 2.822223,3.175 0,0 -0.61722,0.52917 -0.705556,0.52916 -0.617502,0.35278 -0.705556,0.26473 0,0 -0.617502,0.26444 -0.705555,0.0883 -0.705556,0.0881 -0.705556,-0.0881 0,0 -0.705555,-0.17667 -0.793609,-0.26444 -0.793609,-0.35278 -0.793891,-0.44111 0,0 -0.969998,-0.61722 -0.793891,-0.70556 -0.705555,-0.70555 -0.529167,-0.70556 0,0 -0.440831,-0.70555 -0.264725,-0.79389 -0.176389,-0.97 -0.08834,-0.97 0,0 0.08834,-1.05833 0.264443,-1.14667 0.441113,-1.14667 0.705556,-1.14639 0,0 0.441113,-0.70555 0.528884,-0.70556 0.529449,-0.6175 0.61722,-0.52888 0.61722,-0.44112 0.617502,-0.35278 0.617503,-0.26444 0.61722,-0.17667 0,0 0.705555,-0.17611 0.705556,0 0.705555,0 0.705556,0.17611 0.793891,0.17667 0.705556,0.26444 0.705555,0.35278 0.793609,0.44112 0,0 1.058333,0.7936 0.97028,0.79361 0.61722,0.79389 0.529167,0.88195 0,0 0.264724,0.97028 0.176107,1.05833 -0.08805,1.05834 -0.176389,1.14638 -3.880556,-1.32306 0,0 0.08834,-0.61722 0,-0.52916 0,0 -0.08834,-0.6175 -0.264442,-0.52889 0,0 -0.352778,-0.52945 -0.529449,-0.35278 0,0 -0.705555,-0.35277 -0.705556,-0.0881 -0.61722,0 -0.705555,0.26473 0,0 -0.529167,0.26444 -0.529167,0.44111 -0.529166,0.61722 -0.529167,0.79389 0,0 -0.529167,0.97 -0.352777,0.88195 -0.264725,0.79361 0,0.6175 0,0 0.176671,0.6175 0.264443,0.52888 0.352777,0.44112 0.529167,0.35278 0,0 0.529167,0.26444 0.529166,0.17667 0.529167,0.0881 0.529167,-0.0881 0,0 0.440831,-0.17667 0.529449,-0.35278 0.440831,-0.35278 0.529166,-0.44083 0,0 z"
         style="fill:#ffffff;fill-opacity:1;fill-rule:nonzero;stroke:#fdb927;stroke-width:0.35277778px;stroke-linecap:round;stroke-linejoin:round;stroke-miterlimit:4;stroke-dasharray:none;stroke-opacity:1" />
      <path
         inkscape:connector-curvature="0"
         id="path3413"
         d="m 59.707498,141.99305 3.086946,-4.67445 0.08805,5.55639 -3.175,-0.88194 z m 3.263335,6.79111 4.586111,1.32278 -1.234722,-15.875 -4.850835,-1.32278 -9.525,12.78806 4.586111,1.23472 1.323058,-2.11667 5.026942,1.41111 0.08834,2.55778 z"
         style="fill:#ffffff;fill-opacity:1;fill-rule:nonzero;stroke:#fdb927;stroke-width:0.35277778px;stroke-linecap:round;stroke-linejoin:round;stroke-miterlimit:4;stroke-dasharray:none;stroke-opacity:1" />
      <path
         inkscape:connector-curvature="0"
         id="path3415"
         d="m 77.699164,139.08249 0,0 0.882227,0.0883 0.705556,0.17639 0.528884,0.26472 0.441113,0.44083 0,0 0.352778,0.52917 0.176389,0.70555 0.176389,0.88195 0,1.05833 0,0 -0.08834,1.5875 -0.08805,0.61722 -0.176389,0.44111 0,0 -0.176389,0.35278 -0.264724,0.26444 -0.264442,0.26473 -0.264443,0.17639 0,0 -0.352777,0.17639 -0.529449,0.0881 -1.146387,0 -1.146387,0 0.08805,-8.11389 1.146386,0 z m -5.908886,11.46556 6.791113,0.0881 0,0 1.322776,-0.0881 1.499446,-0.26472 0,0 0.528885,-0.17639 0.529449,-0.26444 0.528884,-0.26473 0.441113,-0.44083 0,0 0.441114,-0.44111 0.440831,-0.52917 0.352778,-0.6175 0.352777,-0.61722 0,0 0.264725,-0.70556 0.176107,-0.88194 0.08834,-0.97028 0.08834,-1.14639 0,0 -0.08834,-1.41111 -0.264442,-1.41111 0,0 -0.176671,-0.70556 -0.264442,-0.6175 -0.352778,-0.61722 -0.352778,-0.52917 0,0 -0.441113,-0.44083 -0.440831,-0.44111 -0.529167,-0.35278 -0.61722,-0.35278 0,0 -0.617502,-0.26444 -0.793609,-0.17667 -0.882227,-0.0881 -0.969998,-0.0881 -6.791113,-0.0883 -0.264442,14.905 z"
         style="fill:#ffffff;fill-opacity:1;fill-rule:nonzero;stroke:#ffffff;stroke-width:0.35277778px;stroke-linecap:round;stroke-linejoin:round;stroke-miterlimit:4;stroke-dasharray:none;stroke-opacity:1" />
      <path
         inkscape:connector-curvature="0"
         id="path3417"
         d="m 86.959722,135.55471 12.08278,-2.82222 0.705556,3.08695 -7.585005,1.76389 0.617503,2.38139 6.967502,-1.67584 0.705552,2.91028 -6.967499,1.67583 0.617502,2.91028 7.761107,-1.85194 0.79361,3.26305 -12.259166,2.91056 -3.439442,-14.55223 z"
         style="fill:#ffffff;fill-opacity:1;fill-rule:nonzero;stroke:#fdb927;stroke-width:0.35277778px;stroke-linecap:round;stroke-linejoin:round;stroke-miterlimit:4;stroke-dasharray:none;stroke-opacity:1" />
      <path
         inkscape:connector-curvature="0"
         id="path3419"
         d="m 100.36528,132.55638 5.29166,-3.08694 6.52639,6.70278 -2.55749,-8.99584 5.20333,-3.08666 7.49667,12.96444 -3.26334,1.85222 -5.73278,-9.78972 3.26334,11.28889 -2.99862,1.67583 -8.20194,-8.37861 5.7325,9.87778 -3.26305,1.85194 -7.49667,-12.87611 z"
         style="fill:#ffffff;fill-opacity:1;fill-rule:nonzero;stroke:#fdb927;stroke-width:0.35277778px;stroke-linecap:round;stroke-linejoin:round;stroke-miterlimit:4;stroke-dasharray:none;stroke-opacity:1" />
      <path
         inkscape:connector-curvature="0"
         id="path3421"
         d="m 114.74083,124.17777 3.43973,-3.7925 5.73249,0.97028 -1.85194,-5.55639 3.35139,-3.79222 2.73389,10.05416 4.67444,4.14528 -2.99861,3.43945 -4.67416,-4.145 -10.40723,-1.32306 z"
         style="fill:#ffffff;fill-opacity:1;fill-rule:nonzero;stroke:#fdb927;stroke-width:0.35277778px;stroke-linecap:round;stroke-linejoin:round;stroke-miterlimit:4;stroke-dasharray:none;stroke-opacity:1" />
    </g>
  </g>
</svg>
